<?xml version="1.0" encoding="UTF-8"?><svg id="a" xmlns="http://www.w3.org/2000/svg" viewBox="0 0 39.92 15.32"><path d="m1.06,6.01V.19h1.98v5.98c0,.67-.13,1.19-.38,1.54-.25.36-.6.58-1.06.68s-.99.1-1.6,0v-1.72c.38.08.66.07.82-.02.16-.1.24-.31.24-.64Z" fill="#fff"/><path d="m9.25,6.11c-.55.23-1.1.38-1.64.43-.54.06-1.06.03-1.54-.09-.48-.12-.91-.31-1.29-.59s-.67-.64-.88-1.07c-.21-.43-.32-.93-.32-1.5,0-.47.08-.91.23-1.3.16-.4.38-.74.67-1.04s.63-.53,1.02-.7c.39-.16.82-.25,1.28-.25.42,0,.79.07,1.13.2.34.14.63.33.88.57.25.24.45.53.6.87s.25.7.29,1.1c.04.4.02.82-.07,1.27h-3.96c.15.3.41.52.76.65s.78.17,1.27.12c.49-.05,1.02-.18,1.58-.38v1.7ZM6.73,1.78c-.23,0-.45.06-.64.19-.2.13-.35.32-.45.59h2.17c-.1-.27-.24-.47-.43-.59s-.41-.19-.65-.19Z" fill="#fff"/><path d="m14.98,4.48c0,.5-.14.9-.41,1.22-.28.32-.65.55-1.11.69-.46.14-.98.21-1.55.19-.57-.02-1.15-.11-1.75-.28v-1.87c.34.15.67.27,1.01.35s.64.13.91.15c.27.02.49,0,.66-.07.17-.06.25-.16.25-.31,0-.11-.07-.2-.21-.26-.14-.06-.32-.12-.55-.17-.22-.05-.46-.12-.71-.19-.25-.08-.49-.18-.71-.32-.22-.14-.41-.33-.55-.56-.14-.24-.21-.54-.21-.92,0-.45.13-.83.39-1.15.26-.32.61-.56,1.05-.72.44-.16.93-.25,1.48-.25s1.1.09,1.67.28v1.87c-.45-.22-.87-.36-1.26-.43-.39-.07-.71-.08-.95-.03-.24.05-.36.16-.36.33,0,.11.07.2.21.26.14.06.32.11.54.16s.46.11.71.19.49.19.71.33c.22.14.4.33.54.58.14.24.21.56.21.94Z" fill="#fff"/><path d="m20.38,4.48c0,.5-.14.9-.41,1.22-.28.32-.65.55-1.11.69-.46.14-.98.21-1.55.19-.57-.02-1.15-.11-1.75-.28v-1.87c.34.15.67.27,1.01.35s.64.13.91.15c.27.02.49,0,.66-.07.17-.06.25-.16.25-.31,0-.11-.07-.2-.21-.26-.14-.06-.32-.12-.55-.17-.22-.05-.46-.12-.71-.19-.25-.08-.49-.18-.71-.32-.22-.14-.41-.33-.55-.56-.14-.24-.21-.54-.21-.92,0-.45.13-.83.39-1.15.26-.32.61-.56,1.05-.72.44-.16.93-.25,1.48-.25s1.1.09,1.67.28v1.87c-.45-.22-.87-.36-1.26-.43-.39-.07-.71-.08-.95-.03-.24.05-.36.16-.36.33,0,.11.07.2.21.26.14.06.32.11.54.16s.46.11.71.19.49.19.71.33c.22.14.4.33.54.58.14.24.21.56.21.94Z" fill="#fff"/><path d="m26.44,6.11c-.55.23-1.1.38-1.64.43-.54.06-1.06.03-1.54-.09-.48-.12-.91-.31-1.29-.59s-.67-.64-.88-1.07c-.21-.43-.32-.93-.32-1.5,0-.47.08-.91.23-1.3.16-.4.38-.74.67-1.04s.63-.53,1.02-.7c.39-.16.82-.25,1.28-.25.42,0,.79.07,1.13.2.34.14.63.33.88.57.25.24.45.53.6.87s.25.7.29,1.1c.04.4.02.82-.07,1.27h-3.96c.15.3.41.52.76.65s.78.17,1.27.12c.49-.05,1.02-.18,1.58-.38v1.7Zm-2.52-4.33c-.23,0-.45.06-.64.19-.2.13-.35.32-.45.59h2.17c-.1-.27-.24-.47-.43-.59s-.41-.19-.65-.19Z" fill="#fff"/><path d="m5.74,15.32h-1.98V7.19h1.98v.35c.2-.16.43-.29.68-.38.26-.09.53-.14.82-.14.4,0,.78.08,1.14.23.36.16.68.38.95.67s.49.63.65,1.03c.16.4.23.84.23,1.33s-.08.92-.23,1.32c-.16.4-.37.75-.65,1.04s-.59.52-.95.68c-.36.16-.74.24-1.15.24-.29,0-.56-.05-.81-.14s-.48-.22-.68-.39v2.28Zm1.22-3.5c.39,0,.7-.14.93-.41s.34-.65.34-1.11-.11-.83-.34-1.1c-.23-.27-.54-.41-.93-.41s-.69.14-.92.41-.35.64-.35,1.1.12.82.35,1.1.54.42.92.42Z" fill="#fff"/><path d="m10.78,13.4v-6.2h1.98v6.2h-1.98Z" fill="#fff"/><path d="m13.42,13.4v-6.2h1.98v.31c.22-.15.46-.27.73-.35.27-.08.56-.13.87-.13.46,0,.86.1,1.21.31.35.21.62.51.82.89.2.39.29.85.29,1.4v3.77h-1.98v-3.5c0-.32-.07-.58-.22-.77-.15-.2-.38-.29-.7-.29s-.57.09-.74.28c-.18.18-.26.45-.26.79v3.5h-1.98Z" fill="#fff"/><path d="m20.05,13.4v-7.1h1.98v.78c0,.48,0-.04,0,.43.22-.15.46-.27.73-.35s.56-.13.87-.13c.46,0,.86.1,1.21.31s.62.51.82.89c.2.39.29.85.29,1.4v3.77h-1.98v-3.5c0-.32-.07-.58-.22-.77-.15-.2-.38-.29-.7-.29s-.57.09-.74.28-.26.45-.26.79v3.5h-1.98Z" fill="#fff"/><path d="m29.64,13.59c-.46,0-.9-.08-1.3-.25-.4-.16-.75-.4-1.04-.7s-.53-.65-.69-1.05-.25-.84-.25-1.31.08-.91.25-1.31.39-.75.69-1.04.64-.53,1.04-.69c.4-.16.83-.25,1.3-.25s.91.08,1.3.25c.4.16.74.39,1.04.69s.53.64.69,1.04.25.84.25,1.31-.08.91-.25,1.31-.39.75-.69,1.05-.64.53-1.04.7-.83.25-1.3.25Zm0-1.79c.39,0,.71-.14.94-.43.24-.28.35-.65.35-1.09s-.12-.81-.35-1.09c-.24-.28-.55-.41-.94-.41s-.71.14-.94.41c-.24.28-.35.64-.35,1.09s.12.8.35,1.09c.24.28.55.43.94.43Z" fill="#fff"/><path d="m32.98,8.62c.1-.56.19-1.12.29-1.69s.2-1.13.29-1.69h2.03c-.14.56-.29,1.12-.44,1.69s-.3,1.13-.44,1.69h-1.73Z" fill="#fff"/><path d="m39.92,11.48c0,.5-.14.9-.41,1.22-.28.32-.65.55-1.11.69-.46.14-.98.21-1.55.19-.57-.02-1.15-.11-1.75-.28v-1.87c.34.15.67.27,1.01.35s.64.13.91.15c.27.02.49,0,.66-.07.17-.06.25-.16.25-.31,0-.11-.07-.2-.21-.26-.14-.06-.32-.12-.55-.17-.22-.05-.46-.12-.71-.19-.25-.08-.49-.18-.71-.32-.22-.14-.41-.33-.55-.56-.14-.24-.21-.54-.21-.92,0-.45.13-.83.39-1.15.26-.32.61-.56,1.05-.72.44-.16.93-.25,1.48-.25s1.1.09,1.67.28v1.87c-.45-.22-.87-.36-1.26-.43-.39-.07-.71-.08-.95-.03-.24.05-.36.16-.36.33,0,.11.07.2.21.26.14.06.32.11.54.16s.46.11.71.19.49.19.71.33c.22.14.4.33.54.58.14.24.21.56.21.94Z" fill="#fff"/></svg>