<?xml version="1.0" encoding="UTF-8"?><svg id="a" xmlns="http://www.w3.org/2000/svg" viewBox="0 0 103.74 42.53"><path d="m1.5,30.08c-.23,0-.41-.18-.41-.41,0-.58.04-1.16.07-1.74.06-.95.12-1.84.02-2.73,0-.05-.03-.11-.05-.16-.08-.05-.14-.12-.17-.21-.05-.15-.02-.36.09-.47.11-.11.29-.15.44-.1.28.1.48.56.51.85.11.96.04,1.93-.02,2.87-.04.56-.07,1.13-.07,1.69,0,.23-.18.41-.41.41Z" fill="#fff"/><path d="m.99,31.65s-.07,0-.11,0c-.38-.03-.68-.22-.83-.53-.1-.2-.02-.45.18-.55.2-.1.45-.02.55.18.01.03.04.07.16.08.79.08,2.67-1.25,3-1.71.23-.33.35-.7.29-.95-.03-.13-.11-.23-.24-.31-.16-.07-1.1-.26-1.56-.35q-.85-.17-.95-.37c-.06-.12-.06-.25,0-.37.23-.46.64-.75,1.04-1.04.36-.26.7-.5.85-.84.11-.26.08-.35.08-.35-.17-.12-1.02.1-1.45.33,0,.02,0,.04,0,.06-.03.22-.21.38-.42.36-.39-.03-.49-.28-.51-.38-.09-.38.3-.61.43-.69.33-.2,1.83-.88,2.51-.28.22.19.42.57.12,1.28-.24.55-.71.89-1.13,1.18-.14.1-.27.19-.39.29,1.11.22,1.61.33,1.8.44.34.19.56.49.64.85.11.48-.06,1.08-.43,1.6-.43.61-2.42,2.05-3.63,2.05Zm.87-4.69h0,0Z" fill="#fff"/><path d="m9.08,42.53s-.09,0-.13-.02c-.22-.07-.33-.31-.26-.52.93-2.79.97-5.83,1.01-8.78.03-1.79.05-3.63.27-5.42-.74.67-1.69,1.12-2.47,1.12-.51,0-.94-.18-1.25-.54-.32-.37-.48-.9-.48-1.59,0-.24.02-1.44.44-1.8.13-.11.28-.15.44-.12.22.04.38.25.34.48-.02.14-.12.26-.25.31-.08.22-.15.81-.15,1.13,0,1.3.68,1.3.9,1.3.93,0,2.33-.99,2.75-1.99.01-.07.03-.14.04-.21.01-.05.02-.14.04-.22.04-.26.12-.61.48-.58.21.02.38.23.38.44,0,.26-.05.52-.15.77-.46,2.23-.5,4.62-.53,6.93-.04,3.01-.09,6.12-1.06,9.03-.06.17-.22.28-.39.28Z" fill="#fff"/><path d="m24.32,32.29c-.23,0-.41-.18-.41-.41s.18-.41.41-.41c2.88,0,5.81-.61,8.03-1.67,1.39-.66,2.22-1.53,2.56-2.66.83-2.78-1.59-6.8-3.73-10.35-1.64-2.71-3.18-5.28-3.32-7.23-.02-.23.16-.42.38-.44.23,0,.42.16.44.38.12,1.76,1.62,4.24,3.2,6.86,2.34,3.87,4.75,7.88,3.82,11.01-.4,1.34-1.41,2.41-3,3.17-2.33,1.12-5.38,1.75-8.39,1.75Z" fill="#fff"/><path d="m40.24,30.46c-.5,0-.97-.16-1.21-.65-.44-.87-.32-1.97-.22-2.95.04-.39.08-.77.08-1.12v-.9c0-.23.18-.41.41-.41s.41.18.41.41h0s0,.45.01.66c0,.05,0,.09-.01.14v.11c0,.37-.04.78-.09,1.2-.1.9-.19,1.83.13,2.49.09.19.48.41,2-.2.21-.09.45.02.54.23.08.21-.02.45-.23.54-.35.14-1.13.45-1.83.45Z" fill="#fff"/><path d="m39.52,27.84c-.05,0-.11-.01-.16-.04-.18-.08-.33-.31-.29-.5.05-.26.11-.52,2.58-.52.23,0,.41.18.41.41s-.18.41-.41.41c-.33,0-1.38.04-1.82.1-.08.09-.19.14-.31.14Z" fill="#fff"/><path d="m39.3,25.55s-.04,0-.06,0c-.16-.02-.64-.1-.65-.52,0-.46.31-.63,3.2-1.16.16-.03.27-.05.31-.06.22-.05.44.09.49.31.05.22-.09.44-.31.49-.05.01-.17.03-.34.07-1.17.21-1.84.36-2.22.46,0,.02,0,.04,0,.06-.03.21-.21.35-.41.35Z" fill="#fff"/><path d="m43.21,30.13c-.11,0-.2-.02-.27-.07-.16-.12-.26-.35-.13-.62.1-.2.35-.29.55-.18,0,0,.02.01.03.02.43-.17,1.32-.69,1.48-.84.4-.4.4-.58.39-.63-.04-.21-.55-.44-.93-.62-.49-.23-1-.46-1.24-.86-.3-.5-.15-1.05.38-1.37.65-.39,1.67-.33,2.07.33.12.19.05.45-.14.57-.19.12-.45.06-.57-.14-.14-.22-.65-.22-.94-.04-.17.11-.14.16-.1.24.11.18.54.38.88.54.6.28,1.28.59,1.4,1.22.08.42-.13.87-.62,1.36-.01.01-1.49,1.12-2.25,1.12Z" fill="#fff"/><path d="m46.7,29.58c-.23,0-.41-.18-.41-.41s.18-.41.41-.41c.41,0,.95-.16,1.42-.31.16-.05.31-.09.45-.13.3-.08.35-.17.35-.17.04-.19-.53-.79-.81-1.08-.58-.62-1.13-1.2-.95-1.79.16-.51.78-.63.98-.67.5-.1,1.25-.07,1.72.18.2.11.28.36.17.56-.11.2-.36.28-.56.17-.24-.13-.78-.18-1.16-.1-.3.06-.36.13-.37.13.01.15.5.67.77.95.6.64,1.18,1.25,1,1.87-.1.35-.41.59-.92.74-.14.04-.28.08-.43.13-.53.16-1.13.34-1.66.34Z" fill="#fff"/><path d="m52.68,31.33c-.57,0-1-.14-1.3-.43-.71-.66-.61-1.95-.39-3.24.45-2.73.64-2.79.82-2.85l.22.79-.09-.4.38.16c-.07.2-.45,2.07-.51,2.44-.15.88-.29,2.11.14,2.5.3.28.97.28,2.06,0,.22-.05.44.08.5.3.05.22-.08.44-.3.5-.6.15-1.1.22-1.52.22Z" fill="#fff"/><path d="m51.47,29.28c-.09,0-.18-.03-.25-.09-.18-.14-.25-.34-.19-.54.12-.42.63-.54,2.33-.73.23-.03.41-.04.47-.06.23-.05.44.09.5.31.05.22-.08.44-.3.5-.08.02-.29.05-.58.08-.35.04-1.19.13-1.58.24-.01.05-.04.09-.07.14-.08.1-.2.16-.33.16Z" fill="#fff"/><path d="m51.95,26.1c-.08,0-.17-.03-.24-.09-.38-.35-.32-.66-.25-.81.09-.19.31-.65,2.69-.32.23.03.38.24.35.47-.03.23-.24.39-.47.35-.65-.09-1.32-.13-1.68-.09.02.12,0,.25-.09.34-.09.1-.2.15-.32.15Z" fill="#fff"/><path d="m65.44,32.52s-.05,0-.08,0c-.22-.04-.37-.26-.33-.48.58-3.11.05-6.43-.46-9.63-.24-1.48-.48-3-.6-4.47-.12-1.41-.11-2.86-.1-4.26,0-1.81.02-3.68-.25-5.46,0-.04-.04-.17-.07-.34-.38-1.73-.38-1.89-.17-2.09,1.41-1.41,4.38-2.3,6.56-2.96.46-.14.9-.27,1.27-.39,4.52-1.47,13.35-3.64,21.76-1.6,6.33,1.53,10.35,4.77,10.75,8.67.38,3.73-2.61,7.38-8.2,10.03-.21.1-.45.01-.55-.2-.1-.21,0-.45.2-.55,5.26-2.49,8.07-5.84,7.73-9.2-.36-3.53-4.15-6.5-10.12-7.95-8.21-1.99-16.87.14-21.31,1.58-.38.12-.82.26-1.29.4-2.03.61-4.79,1.44-6.1,2.64.04.32.21,1.11.28,1.44.04.19.07.34.08.39.28,1.85.27,3.75.26,5.59,0,1.38-.02,2.81.1,4.18.12,1.44.35,2.88.6,4.41.52,3.27,1.06,6.66.45,9.91-.04.2-.21.34-.41.34Z" fill="#fff"/><path d="m69.35,31.3c-.23,0-.41-.18-.41-.41,0-.12.03-.48.07-.91.03-.31.07-.78.09-1.14-.09-.1-.14-.24-.1-.38.07-.28.17-.68.58-.63.44.07.43.24.25,2.23-.03.39-.06.73-.06.84,0,.23-.18.41-.41.41Z" fill="#fff"/><path d="m71.35,31.97c-.22,0-.4-.17-.41-.39-.03-.48.09-.79.22-1.14l.06-.15c.06-.15.08-.24.1-.3.04-.13.06-.21.18-.46.07-.15.3-.6.74-.6h0c.48,0,.73.51,1,1.06.12.24.33.66.46.76,0-.02.05-.05.1-.11.2-.26.83-1.71.97-2.23,0-.01-.01-.02-.02-.03-.1-.2-.02-.45.18-.55.17-.09.45-.04.57.11.46.57-1.04,3.2-1.05,3.22-.25.32-.53.46-.83.44-.54-.05-.83-.65-1.12-1.23-.07-.15-.17-.34-.25-.48v.02c-.1.18-.12.23-.14.32-.02.08-.05.18-.12.36l-.06.16c-.12.32-.19.49-.17.79.01.23-.16.42-.39.44h-.03Z" fill="#fff"/><path d="m77.83,31.93c-.17,0-.33-.11-.39-.28-.24-.73-.1-1.47.04-2.19.12-.61.23-1.18.09-1.66-.06-.22.06-.45.28-.51.22-.07.45.06.51.28.2.68.06,1.38-.07,2.06-.13.64-.25,1.25-.07,1.77.07.22-.04.45-.26.52-.04.01-.09.02-.13.02Z" fill="#fff"/><path d="m80.9,31.93c-.23,0-.41-.18-.41-.41,0-1.22.02-2.51.31-3.74.05-.22.27-.36.5-.31.22.05.36.27.31.5-.27,1.15-.29,2.39-.29,3.56,0,.23-.18.41-.41.41Z" fill="#fff"/><path d="m78.52,30.45c-.07,0-.14-.02-.2-.06-.36-.21-.33-.49-.29-.59.13-.43.64-.4,1.65-.34.14,0,.26.02.32.02.23,0,.41.18.41.41s-.18.41-.41.41c-.07,0-.21,0-.37-.02-.18,0-.51-.03-.76-.03-.08.12-.21.19-.35.19Z" fill="#fff"/><path d="m84.98,31.65c-.28,0-.54-.05-.77-.16-.38-.17-1.01-.64-1.01-1.87-.01-.74.04-1.2.32-1.43.13-.11.3-.15.48-.12.22.05.37.26.32.49-.03.14-.13.25-.26.3-.02.1-.04.29-.04.68,0,.49.09,1,.53,1.2.49.22,1.27,0,1.85-.52.43-.38.63-.8.54-1.12-.05-.2-.22-.34-.45-.39-.41-.07-.9.19-1.29.71-.14.18-.4.22-.58.08-.18-.14-.22-.4-.08-.58.58-.78,1.36-1.16,2.11-1.02.54.1.95.48,1.09.98.18.64-.11,1.35-.79,1.95-.59.53-1.32.82-1.97.82Z" fill="#fff"/></svg>